<svg width="1028" height="166" viewBox="0 0 1028 166" fill="none" xmlns="http://www.w3.org/2000/svg">
<path d="M70.128 2.44788C67.828 4.54788 66.728 6.54788 66.328 9.54788C65.828 13.4479 66.128 14.1479 69.328 17.3479C73.728 21.7479 78.628 22.1479 83.628 18.3479L87.028 15.7479L91.228 19.7479C106.028 33.3479 114.928 67.2479 112.028 98.6479C111.428 105.048 110.328 113.448 109.428 117.348C108.628 121.148 107.728 125.548 107.328 127.048C106.928 129.348 107.128 129.848 108.728 129.848C110.328 129.848 111.028 128.648 112.328 123.648C115.428 111.348 116.128 106.148 116.728 91.3479C117.228 78.8479 116.928 74.2479 115.128 64.0479C111.028 39.8479 103.128 22.8479 91.928 14.4479C89.128 12.2479 87.028 9.84788 87.028 8.74788C87.028 5.34788 81.928 0.747878 77.428 0.147878C73.928 -0.252122 72.828 0.0478776 70.128 2.44788ZM81.228 6.54788C86.528 11.3479 79.528 19.3479 73.428 15.3479C70.728 13.6479 70.028 8.24788 72.228 6.04788C73.928 4.34788 79.028 4.54788 81.228 6.54788Z" fill="black"/>
<path d="M24.5279 36.1479C18.7279 38.0479 15.9279 39.6479 12.2279 43.2479C7.72786 47.3479 6.22786 50.5479 5.42786 57.1479C4.42786 65.7479 10.1279 82.3479 13.8279 81.6479C16.0279 81.1479 15.8279 79.8479 12.5279 71.9479C10.6279 67.5479 9.82786 63.7479 9.82786 59.8479C9.82786 50.8479 13.3279 45.9479 22.5279 41.6479C26.9279 39.6479 29.0279 39.3479 41.2279 39.3479C48.8279 39.3479 55.0279 39.0479 55.1279 38.5479C55.3279 35.8479 53.8279 35.4479 41.4279 35.1479C32.7279 34.9479 27.2279 35.2479 24.5279 36.1479Z" fill="black"/>
<path d="M113.228 36.4479C113.428 37.9479 114.728 38.4479 119.028 38.9479C134.028 40.6479 141.428 46.1479 143.428 57.0479C144.728 63.9479 140.428 75.4479 132.928 85.5479C128.728 91.1479 128.028 93.8479 130.828 93.8479C132.928 93.7479 139.028 85.5479 143.128 77.3479C149.728 63.7479 149.328 52.3479 141.828 44.2479C136.228 38.2479 130.728 35.7479 120.928 35.1479C113.328 34.5479 112.828 34.6479 113.228 36.4479Z" fill="black"/>
<path d="M83.6278 39.8479C47.9278 51.9479 14.6278 80.2479 6.9278 104.948C5.9278 108.248 5.0278 112.348 5.0278 114.048C5.0278 115.848 4.0278 118.348 2.5278 120.048C-2.0722 125.548 -0.172204 133.548 6.4278 136.348C14.1278 139.548 22.6278 132.348 20.6278 124.248C19.7278 120.748 15.7278 116.948 12.1278 116.248C9.4278 115.648 9.2278 115.448 9.8278 111.448C12.0278 94.3479 33.5278 70.3479 60.0278 55.4479C69.9278 49.9479 82.9278 44.4479 91.0278 42.3479C97.2278 40.7479 99.4278 39.3479 98.4278 37.6479C97.4278 36.1479 92.5278 36.8479 83.6278 39.8479ZM14.1278 121.848C15.3278 122.548 16.0278 123.948 16.0278 126.048C16.0278 132.148 10.1278 134.948 6.0278 130.848C0.727796 125.548 7.3278 118.248 14.1278 121.848Z" fill="black"/>
<path d="M394.228 43.3479C371.528 48.3479 359.828 62.2479 359.828 84.1479C359.928 103.148 370.428 116.448 389.828 122.148C398.228 124.548 417.128 124.748 427.628 122.548C445.628 118.648 457.028 107.548 460.028 90.8479C464.328 67.3479 450.828 48.5479 426.128 43.3479C417.328 41.5479 402.728 41.5479 394.228 43.3479ZM427.528 50.4479C439.028 53.2479 447.128 60.1479 451.028 70.4479C452.828 75.3479 453.128 77.8479 452.828 84.8479C451.728 107.148 437.628 117.748 409.528 117.848C389.528 117.848 376.528 111.648 370.528 99.3479C364.028 86.1479 367.228 66.7479 377.228 58.2479C388.128 49.0479 408.728 45.8479 427.528 50.4479Z" fill="black"/>
<path d="M694.028 43.1479C691.028 43.8479 686.928 45.2479 684.928 46.1479C673.628 51.6479 670.228 64.3479 678.028 72.3479C682.428 76.8479 689.828 80.0479 707.528 84.6479C732.628 91.3479 738.928 94.5479 740.628 101.448C741.528 104.848 738.828 110.248 734.928 113.148C726.628 119.148 692.828 119.348 681.028 113.348C679.628 112.648 677.528 111.748 676.228 111.348C674.028 110.748 673.928 110.848 674.228 114.948L674.528 119.248L681.528 121.148C695.928 124.848 721.028 125.048 732.828 121.348C742.228 118.448 748.028 111.448 748.028 102.848C748.028 91.8479 739.628 86.1479 712.528 78.9479C692.628 73.7479 686.628 71.3479 683.528 67.7479C679.428 62.7479 680.728 56.4479 686.628 52.7479C690.728 50.2479 701.728 47.8479 709.628 47.8479C717.328 47.8479 730.628 50.3479 736.628 52.8479C739.128 53.9479 741.428 54.8479 741.628 54.8479C741.928 54.8479 742.028 52.9479 741.828 50.5479L741.528 46.3479L733.528 44.5479C723.028 42.2479 701.328 41.4479 694.028 43.1479Z" fill="black"/>
<path d="M790.028 42.8479C771.328 46.3479 762.928 56.8479 769.028 68.8479C772.628 75.8479 779.928 79.2479 804.228 85.3479C812.028 87.3479 820.628 89.9479 823.228 91.0479C829.328 93.6479 834.028 98.8479 834.028 102.948C834.028 113.648 821.828 118.548 797.228 117.648C786.228 117.248 783.628 116.748 778.028 114.448C769.028 110.648 767.628 110.648 767.228 114.448C767.028 116.148 767.528 117.948 768.228 118.548C768.928 119.148 773.628 120.648 778.528 121.948C785.828 123.848 790.128 124.248 801.528 124.248C816.628 124.148 825.028 122.648 832.428 118.548C842.628 112.948 845.128 99.9479 837.428 92.3479C832.128 87.0479 825.928 84.3479 806.928 79.3479C780.728 72.3479 775.028 69.2479 775.028 61.5479C775.028 53.9479 782.828 49.6479 799.328 48.2479C808.828 47.5479 822.928 49.5479 830.428 52.8479L835.128 54.8479L834.828 50.6479L834.528 46.3479L827.028 44.5479C818.528 42.4479 797.128 41.4479 790.028 42.8479Z" fill="black"/>
<path d="M219.228 45.5479C218.128 47.0479 215.328 52.1479 213.028 56.8479C210.728 61.5479 202.128 78.0479 193.928 93.5479C185.728 109.048 179.028 121.948 179.028 122.248C179.028 122.548 180.728 122.848 182.828 122.848C186.528 122.848 186.528 122.848 192.028 112.348L197.528 101.848L224.528 102.148L251.528 102.348L256.928 112.548L262.428 122.848H266.228C268.328 122.848 270.028 122.648 270.028 122.448C270.028 121.948 247.628 78.9479 237.128 59.3479C228.628 43.4479 228.528 43.3479 224.928 43.0479C221.828 42.7479 220.928 43.2479 219.228 45.5479ZM236.528 73.1479C242.428 84.6479 247.028 94.1479 246.828 94.3479C246.028 95.1479 208.428 96.1479 204.828 95.4479L201.228 94.7479L206.128 85.5479C208.828 80.4479 214.028 70.5479 217.628 63.4479C221.228 56.3479 224.528 50.9479 224.928 51.4479C225.428 51.9479 230.628 61.7479 236.528 73.1479Z" fill="black"/>
<path d="M286.728 43.5479C286.328 43.8479 286.028 61.8479 286.028 83.5479V122.848H289.428H292.728L293.228 97.0479C293.428 82.9479 293.428 64.9479 293.228 57.0479L292.828 42.8479H290.128C288.628 42.8479 287.028 43.1479 286.728 43.5479Z" fill="black"/>
<path d="M482.028 82.7479V122.848H506.428C533.228 122.848 542.428 121.748 550.728 117.548C557.128 114.148 562.328 108.648 565.728 101.348C568.228 95.9479 568.428 94.2479 568.528 83.8479C568.528 70.4479 567.028 64.9479 561.228 57.4479C559.128 54.6479 555.228 51.2479 552.328 49.6479C542.828 44.3479 538.828 43.7479 509.328 43.1479L482.028 42.6479V82.7479ZM536.128 50.8479C552.928 54.0479 561.128 64.5479 561.328 82.8479C561.328 94.3479 559.128 100.848 553.128 106.848C550.128 109.848 546.628 112.148 543.528 113.248C536.428 115.648 520.928 116.948 504.028 116.648L489.528 116.348L489.228 83.0479L489.028 49.8479H509.928C521.328 49.8479 533.128 50.3479 536.128 50.8479Z" fill="black"/>
<path d="M578.028 43.3479C578.028 43.6479 586.328 54.1479 596.528 66.6479L615.028 89.3479V106.048V122.848H618.528H622.028V106.048L622.128 89.3479L640.528 66.6479C650.728 54.1479 659.028 43.6479 659.028 43.3479C659.028 43.0479 657.228 42.8479 655.128 42.8479C651.228 42.8479 651.028 42.9479 634.928 63.0479C619.428 82.2479 618.628 83.0479 617.128 81.2479C616.228 80.1479 608.828 71.0479 600.628 61.0479C586.028 43.1479 585.728 42.8479 581.928 42.8479C579.728 42.8479 578.028 43.0479 578.028 43.3479Z" fill="black"/>
<path d="M864.628 43.6479C864.428 44.0479 864.228 62.0479 864.228 83.6479V122.848H898.128H932.028V119.348V115.848H902.028H871.928L872.228 100.048L872.528 84.3479L900.328 84.0479L928.028 83.8479V80.8479V77.8479H912.828C904.428 77.8479 891.728 77.5479 884.728 77.1479L871.928 76.5479L872.228 63.4479L872.528 50.3479L901.828 50.0479L931.028 49.8479V46.3479V42.8479H898.128C879.928 42.8479 864.928 43.2479 864.628 43.6479Z" fill="black"/>
<path d="M946.028 43.5479C946.028 44.2479 950.728 50.1479 976.828 82.2479L983.228 90.1479L982.528 106.548L981.828 122.848H985.928H990.028V105.848V88.8479L1008.53 66.1479L1027.03 43.3479L1023.53 43.0479C1021.53 42.8479 1019.23 43.2479 1018.43 43.8479C1017.73 44.5479 1010.43 53.2479 1002.43 63.2479C994.328 73.1479 987.428 81.7479 987.028 82.1479C986.628 82.6479 979.828 75.2479 972.028 65.6479C952.028 41.3479 953.528 42.8479 949.528 42.8479C947.628 42.8479 946.028 43.1479 946.028 43.5479Z" fill="black"/>
<path d="M71.1276 82.4479C66.9276 87.8479 70.1276 94.8479 76.7276 94.8479C80.3276 94.8479 84.0276 91.0479 84.0276 87.3479C84.0276 83.5479 80.3276 79.8479 76.5276 79.8479C74.1276 79.8479 72.6276 80.5479 71.1276 82.4479Z" fill="black"/>
<path d="M22.4276 94.0479C21.3276 95.7479 36.5276 109.748 46.5276 116.348C76.4276 136.148 109.628 144.548 130.228 137.548C134.128 136.148 137.528 135.548 138.228 136.048C143.628 139.448 153.028 133.348 153.028 126.448C153.028 121.348 148.828 116.948 143.328 116.148C139.428 115.648 138.728 115.948 135.428 119.248C132.028 122.648 131.828 123.248 132.328 127.448C132.828 131.848 132.728 131.948 129.128 133.448C127.128 134.348 122.128 135.248 118.028 135.548C93.4276 137.248 56.5276 121.848 32.8276 99.9479C25.0276 92.7479 23.7276 91.9479 22.4276 94.0479ZM146.528 122.348C149.728 125.448 149.628 127.348 146.528 130.448C143.428 133.548 140.428 133.248 137.828 129.748C136.328 127.748 136.128 126.748 136.928 124.548C137.828 122.148 140.628 120.148 143.328 119.948C143.728 119.848 145.228 120.948 146.528 122.348Z" fill="black"/>
<path d="M43.4277 131.348C42.3277 134.048 51.4277 151.148 57.0277 156.848C66.4277 166.448 77.2277 168.548 87.9277 162.848C93.5277 159.748 103.028 149.348 103.028 146.248C103.028 143.148 99.3277 145.148 95.3277 150.348C81.0277 168.848 63.4277 164.648 51.1277 139.748C46.5277 130.448 44.5277 128.348 43.4277 131.348Z" fill="black"/>
</svg>
